<svg xmlns="http://www.w3.org/2000/svg" data-name="Layer 1" viewBox="0 0 68 68"><path d="M38.4 19.86a9.74 9.74 0 1 0 9.74 9.73A9.75 9.75 0 0 0 38.4 19.86zm0 8.73a2.9 2.9 0 0 1 1 5.62v.67a1 1 0 0 1-2 0v-.67a2.91 2.91 0 0 1-1.91-2.72 1 1 0 1 1 2 0 .91.91 0 1 0 1.81 0 .9.9 0 0 0-.9-.9 2.89 2.89 0 0 1-1-5.61v-.67a1 1 0 0 1 2 0V25a2.9 2.9 0 0 1 1.9 2.71 1 1 0 0 1-2 0 .89.89 0 0 0-.9-.9.9.9 0 1 0 0 1.8zM25 28.59H22a1 1 0 0 0 0 2H25a1 1 0 0 0 0-2zM54.78 28.59h-3a1 1 0 0 0 0 2h3a1 1 0 0 0 0-2z"/><path d="M62.55,11.08H14.26a4.46,4.46,0,0,0-4.45,4.41,4.45,4.45,0,0,0-4.4,4.4A4.46,4.46,0,0,0,1,24.34V52.46a4.46,4.46,0,0,0,4.45,4.46h48.3a4.46,4.46,0,0,0,4.44-4.41,4.45,4.45,0,0,0,4.4-4.41A4.45,4.45,0,0,0,67,43.65V15.53A4.46,4.46,0,0,0,62.55,11.08Zm-4.4,39.43H9.85A2.45,2.45,0,0,1,7.4,48.06V19.94a2.45,2.45,0,0,1,2.41-2.45V43.65a4.45,4.45,0,0,0,4.45,4.45H60.59A2.44,2.44,0,0,1,58.15,50.51Zm4.54-13.19a1,1,0,0,1-1,1,4.47,4.47,0,0,0-4.47,4.47,1,1,0,0,1-1,1H20.59a1,1,0,0,1-1-1,4.47,4.47,0,0,0-4.47-4.47,1,1,0,0,1-1-1V21.87a1,1,0,0,1,1-1,4.47,4.47,0,0,0,4.47-4.47,1,1,0,0,1,1-1H56.22a1,1,0,0,1,1,1,4.47,4.47,0,0,0,4.47,4.47,1,1,0,0,1,1,1Z"/></svg>